<?xml version="1.0" encoding="iso-8859-1"?>
<!-- Generator: Adobe Illustrator 19.0.0, SVG Export Plug-In . SVG Version: 6.00 Build 0)  -->
<svg version="1.1" id="Layer_1" xmlns="http://www.w3.org/2000/svg" xmlns:xlink="http://www.w3.org/1999/xlink" x="0px" y="0px"
	 viewBox="0 0 505 505" style="enable-background:new 0 0 505 505;" xml:space="preserve">
<circle style="fill:#90DFAA;" cx="252.5" cy="252.5" r="252.5"/>
<polygon style="fill:#FFFFFF;" points="179.6,86.4 179.6,139.9 126.1,139.9 126.1,418.6 378.9,418.6 378.9,86.4 "/>
<polygon style="fill:#E6E9EE;" points="179.6,86.4 126.1,139.9 179.6,139.9 "/>
<g>
	<rect x="308.6" y="258.1" style="fill:#90DFAA;" width="29.5" height="80.8"/>
	<rect x="263.1" y="228.7" style="fill:#90DFAA;" width="29.5" height="110.1"/>
	<rect x="217.7" y="283.8" style="fill:#90DFAA;" width="29.5" height="55.1"/>
</g>
<polygon style="fill:#84DBFF;" points="190.2,354.9 190.2,338.8 203.2,338.8 203.2,323.2 190.2,323.2 190.2,305.6 203.2,305.6
	203.2,290 190.2,290 190.2,272.4 203.2,272.4 203.2,256.7 190.2,256.7 190.2,239.1 203.2,239.1 203.2,223.5 190.2,223.5 190.2,207
	166.9,207 166.9,378.2 338.1,378.2 338.1,354.9 "/>
<g>
</g>
<g>
</g>
<g>
</g>
<g>
</g>
<g>
</g>
<g>
</g>
<g>
</g>
<g>
</g>
<g>
</g>
<g>
</g>
<g>
</g>
<g>
</g>
<g>
</g>
<g>
</g>
<g>
</g>
</svg>
